<svg width="15" height="13" viewBox="0 0 15 13" fill="none" xmlns="http://www.w3.org/2000/svg">
<path fill-rule="evenodd" clip-rule="evenodd" d="M14.9851 1.32038C15.0177 1.11998 14.9966 0.91439 14.9243 0.72503C14.8519 0.53567 14.7307 0.369469 14.5735 0.243745C14.4163 0.118021 14.2287 0.0373741 14.0303 0.0102065C13.8319 -0.0169611 13.63 0.0103448 13.4455 0.0892796L0.684342 5.54065C-0.205211 5.92073 -0.250733 7.22603 0.684342 7.61974C1.61038 8.01119 2.54977 8.36929 3.50076 8.69335C4.37241 8.98561 5.32315 9.25591 6.08509 9.33238C6.2933 9.58526 6.55524 9.82906 6.82241 10.0517C7.23062 10.3924 7.72166 10.7429 8.22912 11.0791C9.24554 11.7529 10.3732 12.3973 11.1329 12.8167C12.0411 13.3164 13.1284 12.741 13.2911 11.7363L14.9851 1.32038ZM2.11494 6.57262L13.4015 1.75119L11.8209 11.4728C11.0754 11.0617 10.0015 10.4461 9.0448 9.81164C8.60387 9.5244 8.17815 9.2138 7.76942 8.88112C7.66019 8.79058 7.55415 8.69613 7.45151 8.59796L10.4075 5.5997C10.5475 5.45774 10.6262 5.26514 10.6263 5.0643C10.6264 4.86345 10.5478 4.67081 10.4079 4.52874C10.2679 4.38667 10.0781 4.30682 9.88014 4.30674C9.68217 4.30667 9.49229 4.38639 9.35226 4.52836L6.11569 7.81205C5.56793 7.74088 4.80524 7.53494 3.96793 7.2548C3.34458 7.04408 2.72694 6.81635 2.11569 6.57186L2.11494 6.57262Z" fill="#FAF8F4"/>
</svg>
