<svg width="15" height="15" viewBox="0 0 15 15" fill="none" xmlns="http://www.w3.org/2000/svg">
<path fill-rule="evenodd" clip-rule="evenodd" d="M11.0345 14.9979C9.95263 14.9581 6.8867 14.5344 3.67577 11.3249C0.465594 8.11464 0.0426286 5.05009 0.00205998 3.96773C-0.0580416 2.31828 1.20559 0.716147 2.66531 0.0904675C2.84109 0.0145799 3.03359 -0.0143128 3.2239 0.00662454C3.41422 0.0275619 3.59583 0.0976099 3.7509 0.209895C4.95293 1.0857 5.78233 2.41067 6.49453 3.45246C6.65124 3.68135 6.71824 3.95988 6.68277 4.23497C6.6473 4.51007 6.51185 4.7625 6.30221 4.94418L4.83648 6.03255C4.76567 6.08367 4.71582 6.15876 4.6962 6.24385C4.67658 6.32895 4.68852 6.41827 4.7298 6.49523C5.06186 7.09838 5.65236 7.99671 6.3285 8.67272C7.00465 9.34872 7.94599 9.97816 8.59133 10.3477C8.67224 10.3931 8.76748 10.4058 8.85747 10.3832C8.94746 10.3606 9.02536 10.3043 9.07515 10.226L10.0293 8.77412C10.2047 8.54116 10.4634 8.38509 10.7514 8.33861C11.0393 8.29213 11.334 8.35883 11.5739 8.52475C12.6309 9.25634 13.8645 10.0713 14.7675 11.2273C14.8889 11.3834 14.9662 11.5693 14.9912 11.7655C15.0161 11.9618 14.9879 12.1611 14.9095 12.3427C14.2807 13.8096 12.6895 15.0587 11.0345 14.9979Z" fill="#FAF8F4"/>
</svg>
